<?xml version="1.0" encoding="UTF-8"?>
<svg width="48" height="48" version="1.1" viewBox="0 0 12.7 12.7" xmlns="http://www.w3.org/2000/svg">
 <g>
  <g transform="matrix(.89069 0 0 .88889 -5.9044 -4.5861)">
   <path d="m14.288 6.35 3.608 6.4943v-6.4943h1.804v9.0199h-2.1648l-3.2472-5.4119-0.24511 4.2503a2.9642 2.9642 127.43 0 1-2.0219 2.6415l-0.25851 0.08617s0.39019-0.5149 0.59672-1.2708c0.13139-0.4809 0.12487-1.2997 0.12487-1.8001l-1e-6 -7.4743a0.040644 0.040644 135 0 1 0.040644-0.040644z" fill="#e69522" stroke-width=".29074"/>
   <path d="m9.0199 6.35h2.4053v2.4053a1.2027 1.2027 0 0 1-1.2027 1.2027h-2.4053v-2.4053a1.2027 1.2027 0 0 1 1.2027-1.2027z" fill="#f9f9f9" stroke-width=".12026"/>
   <path d="m9.7415 15.009v-0.36079h-1.804v-2.4053c0-0.66421 0.53844-1.2027 1.2027-1.2027h2.4053v3.608c0 1.804-1.804 3.608-3.608 3.608 1.4432-1.0824 1.804-2.1648 1.804-3.2472z" fill="#f9f9f9" stroke-width=".12026"/>
  </g>
 </g>
</svg>
