<?xml version="1.0" encoding="UTF-8"?>
<!-- Created with Inkscape (http://www.inkscape.org/) -->
<svg width="48" height="48" version="1.1" viewBox="0 0 12.7 12.7" xmlns="http://www.w3.org/2000/svg">
 <g display="none">
  <rect width="26.723" height="26.723" fill="#202731" fill-rule="evenodd" stroke-width=".29613"/>
  <path d="m12.407-10.761c-12.294-1.659-23.437-9.1768-29.831-20.125-1.5395-2.6359-1.6657-3.306-0.80265-4.2596 0.55898-0.61767 0.65224-0.52733 1.9744 1.9125 6.6528 12.277 18.234 19.703 32.145 20.611 8.2375 0.53786 17.81-2.3855 24.768-7.564 8.4116-6.2605 13.829-15.48 15.296-26.031 0.38314-2.7546 0.69759-3.3131 1.8713-3.3234 0.74546-0.0065 0.74556-0.0018 0.08833 4.3589-1.3561 8.997-5.1034 16.456-11.457 22.806-5.7144 5.7106-12.6 9.4378-20.566 11.133-3.168 0.67409-10.201 0.9257-13.485 0.48247zm2.4414-6.9226c0.02801-2.3566 0.02801-2.3566-2.4414-2.7755-1.3582-0.23036-2.5658-0.36515-2.6836-0.29954-0.1178 0.06561-0.41449 1.0632-0.65931 2.2168-0.44512 2.0975-0.44512 2.0975-1.9025 1.645-0.80155-0.24886-2.127-0.72706-2.9455-1.0627-1.4881-0.61018-1.4881-0.61018-0.61736-2.3285 0.88288-1.7423 1.104-2.8001 0.58541-2.8001-0.15693 0-1.1931-0.54665-2.3027-1.2148-2.0173-1.2148-2.0173-1.2148-3.2872 0.69772-1.4326 2.1577-1.2224 2.1891-4.5317-0.67738-1.4111-1.2223-1.4111-1.2223 0.08819-2.7613 0.82462-0.84646 1.4924-1.6918 1.484-1.8784s-0.77948-1.1924-1.7135-2.2348c-1.6982-1.8954-1.6982-1.8954-3.5766-0.63041-2.1375 1.4395-1.8554 1.5833-3.8473-1.9622-1.134-2.0185-1.134-2.0185 0.92252-2.9937 1.1311-0.53635 2.0907-0.98508 2.1324-0.99718 0.04175-0.0121-0.32755-1.0208-0.82065-2.2416-0.4931-1.2208-0.84476-2.2661-0.78146-2.3228 0.0633-0.05673 1.3057-0.69935 2.7609-1.428 1.4552-0.7287 4.2858-2.256 6.2903-3.3939 3.6445-2.069 3.6445-2.069 2.4012-0.61655-1.7683 2.0659-2.6943 4.2293-2.6943 6.2947 0 1.4384 0.13777 1.8291 0.76317 2.1638 1.1094 0.59374 3.9962-0.13859 6.3187-1.6029 1.8885-1.1907 1.8885-1.1907 2.3801 0.27888 0.72395 2.1643 1.0617 2.4525 2.6277 2.2424 1.5813-0.2121 3.4104-1.3678 4.3297-2.7356 0.64518-0.95995 0.64518-0.95995 1.5956-0.25726 1.1689 0.86417 1.86 0.58305 4.25-1.7287 1.289-1.2467 1.6719-1.4584 1.841-1.0176 0.46445 1.2103 4.5018 0.19968 6.0201-1.507 0.60705-0.68238 0.70796-0.69891 1.0886-0.17834 0.37898 0.51829 0.87699 0.5321 5.1518 0.14291 5.7429-0.52286 9.009-1.1179 11.714-2.1341 1.585-0.59539 2.1545-0.67527 2.539-0.35616 0.33097 0.27468 1.1445 0.33032 2.4482 0.16743 1.0739-0.13417 2.3479-0.14471 2.8312-0.02342 0.95541 0.23979 0.9496 0.07005 0.14776 4.3191-0.34234 1.8141-0.34234 1.8141-2.2964 1.3038-1.0748-0.28066-2.107-0.45933-2.2938-0.39705-0.29124 0.09708-2.1867 4.9423-1.9696 5.0348 2.2756 0.96954 3.7823 1.7903 3.7823 2.0603 0 0.62279-2.4944 4.8243-2.8641 4.8243-0.19808 0-1.0524-0.47625-1.8984-1.0583-0.84603-0.58208-1.6684-1.0495-1.8275-1.0386-0.3393 0.02311-3.2878 3.6924-3.2878 4.0915 0 0.1495 0.64598 0.93002 1.4355 1.7345 1.4355 1.4627 1.4355 1.4627-0.59959 3.2765-1.1193 0.99762-2.2019 1.8136-2.4057 1.8132-0.2038-3.52e-4 -0.91227-0.79549-1.5744-1.7669-1.116-1.6374-1.2576-1.7317-1.9403-1.2924-0.40506 0.26061-1.4864 0.90965-2.403 1.4423-1.6666 0.96848-1.6666 0.96848-0.62907 3.0237 1.1799 2.3373 1.4418 1.9897-2.5359 3.366-2.3621 0.81733-2.3621 0.81733-2.7838-1.0669-0.23192-1.0363-0.51835-2.0345-0.6365-2.2181-0.13264-0.20614-1.227-0.15493-2.8607 0.13388-1.4552 0.25726-2.6458 0.4737-2.6458 0.481 0 0.0073 0.05323 1.0455 0.1183 2.3071 0.11829 2.2938 0.11829 2.2938-2.8502 2.2938s-2.9685 0-2.9405-2.3566zm-62.59 1.0755c0.6791-0.30047 2.3491-1.0079 3.7112-1.572 3.2165-1.3322 7.2198-3.6249 10.825-6.1993 3.3833-2.4162 11.212-9.8854 14.397-13.736 2.1924-2.6505 2.2063-2.6806 0.8473-1.8328-0.75994 0.47405-4.0011 2.2655-7.2025 3.9811-7.3168 3.9208-12.135 6.8032-15.522 9.2865-3.099 2.2718-7.1072 6.2256-8.8352 8.7153-1.219 1.7564-1.219 1.7564-1.3285 0.23625-0.30463-4.2292 6.4955-10.111 21.124-18.27 3.3823-1.8866 8.0608-4.3529 10.396-5.4806 6.569-3.1716 7.8557-4.5572 12.324-13.271 3.2323-6.303 7.5942-11.16 7.5942-8.4562 0 0.92323-0.67506 2.0251-2.3175 3.7827-0.6346 0.6791-2.451 3.2985-4.0364 5.8208s-3.2876 5.1211-3.7827 5.775c-0.82881 1.0947-0.20454 0.83197 7.8814-3.3173 9.1521-4.6963 15.586-8.1458 17.899-9.5958 0.74593-0.4677 1.44-0.76666 1.5423-0.66434 0.39134 0.39134-1.9763 2.2895-5.2798 4.2327-1.8918 1.1128-3.4396 2.1061-3.4396 2.2072s0.49266 0.07563 1.0948-0.05662c1.0948-0.24046 1.0948-0.24046 0.97014 1.5422-0.12467 1.7826-0.12467 1.7826 0.82558 0.7416 1.1782-1.2908 2.574-1.4475 2.2038-0.2473-0.41586 1.3481-1.0916 2.4767-2.7694 4.6255-1.6789 2.1501-2.4802 4.0845-2.2708 5.4816 0.11733 0.78283 0.18948 0.75635 1.792-0.65764 0.91838-0.81032 2.5668-2.8512 3.6631-4.5353 3.7821-5.8098 4.4555-6.7662 4.7642-6.7662 0.67526 0 0.24701 2.3318-0.92491 5.0361-0.6791 1.5671-1.2347 3.063-1.2347 3.3244 0 1.0281 1.849-0.77843 4.4508-4.3486 2.7343-3.752 3.887-4.8474 5.5367-5.2614 0.80914-0.20308 0.94862-0.12666 0.94862 0.51976 0 0.86994-1.127 3.2377-2.2784 4.7867-2.6382 3.5493-1.7218 3.4191 2.2185-0.31518 2.9903-2.8339 4.2226-3.7114 5.9688-4.25 0.69349-0.21393 0.79352-0.11932 0.79189 0.74906-0.0018 1.02-0.38538 1.7209-2.3819 4.3538-0.63194 0.83339-1.0716 1.5926-0.97708 1.6872 0.09455 0.09455 1.1988-0.33362 2.4538-0.95147 1.7635-0.86818 2.9381-1.8414 5.1705-4.2839 2.9877-3.269 5.158-4.958 7.2636-5.6529 1.5222-0.50236 1.6966-0.33184 1.2 1.1729-0.65854 1.9954-2.2732 3.8454-5.447 6.2407-1.66 1.2529-2.9537 2.3425-2.8749 2.4213 0.07885 0.07885 1.2949-0.2064 2.7024-0.6339 3.0627-0.93026 7.2468-2.9886 10.578-5.2038 2.0216-1.3443 2.747-1.6318 4.2897-1.7001 1.3558-0.06005 2.5201-0.4349 4.3163-1.3897 2.0459-1.0876 2.7148-1.2791 3.9764-1.1386 0.8342 0.09289 1.6076 0.2597 1.7186 0.37071 0.35558 0.35558-1.6236 3.3543-2.8122 4.2609-0.63178 0.48188-1.8586 1.2115-2.7262 1.6214-1.5775 0.74528-1.5775 0.74528 5.1253 0.56815 3.6865-0.09743 9.8666-0.5115 13.733-0.92016 8.2331-0.8701 9.4097-0.82199 6.1985 0.25344-4.5619 1.5278-7.7094 1.8989-24.752 2.9187-5.4918 0.3286-10.776 0.99296-12.664 1.5922-0.39503 0.12538-0.81581-0.07564-1.1464-0.54768-0.52235-0.74576-0.52235-0.74576-2.0258 0.02127-2.6866 1.3706-6.1288 2.0985-12.505 2.6442-1.3582 0.11625-2.906 0.2937-3.4396 0.39432-0.88011 0.16597-0.97014 0.08655-0.97014-0.85584 0-0.57133 0.32902-1.4571 0.73116-1.9683 1.2522-1.5919 0.39451-1.0281-2.2644 1.4886-2.7214 2.5758-4.9876 3.7282-5.5588 2.8266-0.44555-0.7033-0.38709-1.2615 0.26478-2.5282 0.37686-0.73226-0.54227 0.04872-2.6155 2.2224-2.7722 2.9065-3.2825 3.299-3.8442 2.9568-0.47843-0.29144-0.64769-0.82167-0.64769-2.029 0-0.89897-0.03267-1.6342-0.07263-1.6339-0.03995 3.14e-4 -0.72252 1.1133-1.5168 2.4734-1.4994 2.5674-2.326 3.3308-4.1833 3.8634-1.314 0.37685-1.4762 0.18374-1.9895-2.369-0.37275-1.8536-0.37275-1.8536-1.7733-1.0934-4.291 2.3291-5.3169 2.7707-6.4371 2.7707-1.233 0-1.233 0-1.0145-1.5936 0.31627-2.3075 1.0613-3.5302 4.0803-6.6967 3.3728-3.5375 4.1043-4.4097 3.6986-4.4097-0.17698 0-2.3844 1.1331-4.9054 2.5181-2.521 1.3849-6.5836 3.5678-9.0281 4.8507-4.4445 2.3326-4.4445 2.3326-7.4061 6.0368-3.9419 4.9302-11.04 12.015-14.94 14.912-4.737 3.519-13.176 7.6551-17.306 8.4824-1.0094 0.20217-1.0012 0.18671 0.17639-0.33433zm50.723-27.651c2.4612-1.6435 4.3306-3.6047 5.3608-5.6241 0.79597-1.5602 0.56771-1.7289-1.1559-0.85391-2.6771 1.3589-5.6441 4.5052-6.5869 6.9849-0.46714 1.2287-0.10004 1.1506 2.3821-0.50696zm53.654-9.179c3.1479-0.87232 4.8769-1.7291 6.0422-2.9942 0.88194-0.95742 0.88194-0.95742-0.35278-0.70775-1.7403 0.35189-4.5192 1.6479-6.7392 3.143-1.0419 0.70168-1.814 1.2758-1.7156 1.2758 0.09832 0 1.3427-0.32256 2.7654-0.71679zm-78.387 11.4c-0.57291-0.92699-1.0172-6.7185-0.84359-10.995 0.22323-5.4978 1.0206-9.0979 3.072-13.869 5.1049-11.874 14.943-20.218 27.862-23.63 3.4494-0.9111 11.177-1.2476 15.187-0.66127 13.337 1.9502 24.841 10.338 30.683 22.372 1.5426 3.1778 3.5301 8.988 3.5301 10.32 0 0.30292-0.38255 0.4897-1.003 0.4897-0.95799 0-1.038-0.13059-1.7838-2.9104-1.0153-3.7842-4.067-10.029-6.4055-13.108-6.0878-8.0145-14.185-12.985-24.248-14.883-4.4867-0.8465-11.779-0.52114-16.302 0.72736-14.807 4.087-25.834 16.298-28.206 31.232-0.48429 3.05-0.46651 8.9776 0.036 12.021 0.22302 1.3504 0.34208 2.5122 0.26459 2.5818-0.37766 0.33898-1.6897 0.56213-1.8434 0.31351zm4.3444-2.4806c-0.0021-0.33955-0.09991-1.1981-0.21728-1.9078-0.2134-1.2905-0.2134-1.2905 2.1206-1.5404s2.3339-0.24994 2.3339-3.003c0-2.753 0-2.753-2.2931-2.9986-1.8364-0.19666-2.2931-0.36618-2.2931-0.85119 0-0.93663 0.77795-4.7493 1.0273-5.0346 0.12226-0.1399 0.99823-0.02085 1.9466 0.26458 0.94839 0.28542 1.906 0.51895 2.128 0.51895 0.36697 0 2.171-4.8566 1.8952-5.1019-0.06485-0.05768-0.96159-0.5287-1.9928-1.0467-1.8749-0.94186-1.8749-0.94186-0.58509-3.3056 0.70937-1.3001 1.4021-2.4827 1.5394-2.628 0.13729-0.14534 1.0897 0.32382 2.1164 1.0426 1.8668 1.3068 1.8668 1.3068 2.4521 0.56791 0.32193-0.40641 1.094-1.3655 1.7158-2.1314 1.1305-1.3925 1.1305-1.3925-0.43472-2.9286-1.8005-1.7671-1.8062-1.7496 1.3762-4.2842 1.7191-1.3692 1.7191-1.3692 2.9604 0.40395 0.68271 0.97525 1.3583 1.7732 1.5013 1.7732 0.24343 0 4.1345-2.2603 4.4719-2.5977 0.08492-0.08492-0.26561-0.98323-0.77894-1.9962s-0.80164-1.9735-0.64068-2.1345c0.26158-0.26158 4.8364-2.091 5.2289-2.091 0.08717 0 0.42048 0.91281 0.7407 2.0285 0.32022 1.1157 0.6293 2.0818 0.68686 2.1469 0.05756 0.06514 1.3182-0.07733 2.8015-0.31662 2.6969-0.43506 2.6969-0.43506 2.4569-2.6761-0.23999-2.241-0.23999-2.241 2.8278-2.241 3.0678 0 3.0678 0 2.8284 2.2356-0.23941 2.2356-0.23941 2.2356 2.2447 2.6458 1.3663 0.22564 2.6406 0.41025 2.8319 0.41025 0.19124 0 0.54473-0.88037 0.78554-1.9564 0.2408-1.076 0.55004-2.0257 0.68719-2.1105 0.22832-0.14111 5.2148 1.4191 5.5242 1.7284 0.07374 0.07374-0.27158 1.0513-0.76738 2.1724-0.4958 1.1211-0.85971 2.0668-0.80869 2.1016 0.73184 0.49898 4.4659 2.6505 4.6001 2.6505 0.09991 0 0.69101-0.79375 1.3135-1.7639 0.62254-0.97014 1.2367-1.7639 1.3648-1.7639 0.1281 0 1.2376 0.81294 2.4656 1.8065 2.2327 1.8065 2.2327 1.8065 0.56591 3.4988-1.6668 1.6922-1.6668 1.6922 0.20721 3.8212 1.874 2.1289 1.874 2.1289 3.5673 0.88593 0.93133-0.68366 1.8518-1.1451 2.0456-1.0253 0.39946 0.24688 2.8364 4.3106 2.8364 4.7299 0 0.15047-0.80417 0.65023-1.787 1.1106-0.98288 0.46035-1.8549 0.94687-1.9379 1.0812-0.08299 0.13428 0.08618 0.81155 0.37593 1.505 0.7126 1.7055 0.67758 1.8755-0.44331 2.1514-1.9847 0.48846-4.2389 2.1635-7.5716 5.6262-3.3015 3.4303-3.4083 3.5072-2.9283 2.1078 0.6743-1.9658 0.27739-3.4488-0.96237-3.5957-0.9269-0.10984-2.745 0.62605-4.647 1.8809-1.0281 0.67831-1.0281 0.67831-0.7795-0.31218 0.56266-2.2418-0.74092-3.089-3.1135-2.0233-1.5689 0.70469-2.6081 1.6041-4.3225 3.7415-1.1297 1.4083-1.1297 1.4083-0.92509 0.09223 0.24105-1.5507-0.58106-3.0936-1.6484-3.0936-0.6069 0-2.0167 1.7336-4.4865 5.5172-0.23567 0.36103-0.19599 0.06621 0.08819-0.65516 0.28418-0.72137 0.5167-1.7105 0.5167-2.1981 0-0.87695-0.25391-1.0255-2.268-1.3272-1.1421-0.17108-0.74562-0.75262 1.3468-1.9753 2.8374-1.6579 4.5172-3.4206 4.3811-4.597-0.1855-1.6033-1.339-1.3572-6.0119 1.2824-4.5556 2.5735-18.696 9.9504-19.073 9.9504-0.40262 0 4.0416-6.8537 5.4068-8.3381 2.3832-2.5914 3.1303-5.0522 1.9056-6.277-0.67455-0.67455-0.6638-0.67424-1.8444-0.05349-2.4425 1.2842-4.9344 4.7195-8.4741 11.682-2.2864 4.4974-3.903 6.6748-6.1808 8.3248-1.6188 1.1726-1.9949 1.2468-2.0003 0.39438zm28.734-1.7117c0.33504-0.56229 1.1664-1.6573 1.8475-2.4335 1.2257-1.3968 1.2237-1.389-0.20388 0.77187-1.4697 2.2247-2.7507 3.5197-1.6436 1.6616zm35.283-8.3107c1.0077-1.1208 1.7952-2.4132 2.0492-3.3629 0.37831-1.4145 0.54545-1.5817 2.012-2.0129 1.5243-0.44819 1.6102-0.43521 1.8289 0.27614 0.55639 1.8102 0.33112 2.5723-1.0232 3.4615-1.778 1.1673-5.912 3.4585-6.2402 3.4585-0.14485 0 0.47312-0.81915 1.3733-1.8203z" fill="#a00" stroke-width=".35278"/>
  <g transform="translate(-.056295 1.3112)" fill="#f9f9f9">
   <path d="m6.0154 13.541c-0.1058-0.1677-0.18785-1.2154-0.15578-1.9892 0.041224-0.9946 0.18848-1.6459 0.5673-2.5091 0.9427-2.1481 2.7595-3.6575 5.1452-4.2748 0.63699-0.16483 2.0641-0.2257 2.8045-0.11963 2.4629 0.3528 4.5873 1.8702 5.6661 4.0472 0.28487 0.57488 0.62089 1.534 0.62089 1.775 0 0.0548-0.07064 0.08859-0.18522 0.08859-0.17691 0-0.16068 0.06835-0.29841-0.43454-0.18749-0.68459-0.75104-1.8143-1.1829-2.3713-1.1242-1.4499-2.6195-2.3491-4.4777-2.6925-0.82855-0.15314-2.1751-0.094283-3.0104 0.13159-2.7343 0.73938-4.7707 2.9485-5.2086 5.6502-0.089433 0.55177-0.08615 1.6241 0.00665 2.1747 0.041184 0.2443 0.063171 0.45448 0.048862 0.46707-0.069741 0.06133-0.31203 0.1017-0.34041 0.05673z" stroke-width=".06448"/>
   <path d="m12.323 19.2c-2.2702-0.30014-4.3281-1.6602-5.5089-3.6409-0.28429-0.47686-0.30761-0.59808-0.14822-0.77061 0.10323-0.11174 0.12045-0.0954 0.3646 0.34599 1.2286 2.221 3.3672 3.5644 5.9361 3.7287 1.5212 0.09731 3.2889-0.43156 4.5738-1.3684 1.5533-1.1326 2.5537-2.8004 2.8247-4.7093 0.07074-0.49833 0.12882-0.59937 0.34556-0.60123 0.13766-0.0011 0.13768-3.25e-4 0.0163 0.78856-0.25042 1.6276-0.94243 2.9771-2.1158 4.1258-1.0553 1.0331-2.3268 1.7074-3.7979 2.014-0.58503 0.12195-1.8837 0.16747-2.4902 0.08728z" stroke-width=".06448"/>
   <path d="m9.98 9.6317c-0.21072-0.011966-0.81695 0.72192-1.2891 1.6238-0.8033 1.5346-1.0345 1.7786-2.2154 2.3372-0.41989 0.1986-1.2609 0.63293-1.8689 0.96518-2.6297 1.4369-3.8521 2.4727-3.7974 3.2175 0.019684 0.26772 0.0197 0.26753 0.23884-0.0418 0.31062-0.43845 1.0312-1.1347 1.5883-1.5348 0.60896-0.43732 1.4751-0.94481 2.7904-1.6353 0.57552-0.30212 1.1581-0.61778 1.2947-0.70126 0.24431-0.1493 0.24179-0.14394-0.15233 0.32284-0.57256 0.67811-1.9799 1.9936-2.5881 2.4191-0.64805 0.45338-1.3678 0.85698-1.946 1.0916-0.24485 0.09935-0.54491 0.22395-0.66699 0.27687-0.2117 0.09175-0.21322 0.0943-0.031762 0.05872 0.7425-0.14569 2.2596-0.87411 3.1112-1.4938 0.70124-0.51033 1.9771-1.7579 2.6857-2.6262 0.5324-0.65234 0.53251-0.65239 1.3315-1.0632 0.43943-0.22594 1.1696-0.61031 1.6228-0.85422 0.45319-0.2439 0.85019-0.4434 0.88201-0.4434 0.07294 0-0.05859 0.1537-0.6649 0.77669-0.54273 0.55765-0.67679 0.77299-0.73365 1.1794-0.039267 0.28064-0.039226 0.28063 0.18242 0.28063 0.20137 0 0.38582-0.07795 1.1572-0.48812 0.25177-0.13387 0.25186-0.13378 0.31887 0.19266 0.09228 0.44956 0.12131 0.48365 0.35753 0.41728 0.33388-0.09381 0.48249-0.22824 0.75204-0.68036 0.14279-0.23952 0.26551-0.43562 0.27269-0.43567 0.0072-5.6e-5 0.01295 0.12942 0.01295 0.28773 0 0.21263 0.03059 0.30599 0.1166 0.35732 0.10098 0.06026 0.19267-0.0088 0.69102-0.52072 0.3727-0.3828 0.5379-0.52033 0.47015-0.39138-0.11718 0.22306-0.12774 0.32143-0.04765 0.44529 0.10268 0.15878 0.51022-0.0441 0.99944-0.49774 0.47799-0.44321 0.63216-0.5426 0.40705-0.26224-0.07229 0.09004-0.13143 0.24604-0.13143 0.34666 0 0.16596 0.01606 0.17989 0.17427 0.15066 0.09592-0.01771 0.37414-0.04891 0.6183-0.06937 1.1462-0.09611 1.765-0.22439 2.248-0.46577 0.27028-0.13497 0.27031-0.13488 0.36421-0.0036 0.05943 0.08315 0.13502 0.11862 0.20603 0.09654 0.33942-0.10554 1.2893-0.22255 2.2766-0.28042 3.0637-0.17958 3.6297-0.24498 4.4497-0.51404 0.57727-0.18939 0.36568-0.19795-1.1144-0.04471-0.69514 0.07197-1.8061 0.145-2.4688 0.16215-1.2049 0.03118-1.2049 0.03118-0.92129-0.10009 0.15597-0.07218 0.37643-0.20078 0.49-0.28564 0.21367-0.15966 0.56939-0.68775 0.50547-0.75036-0.01995-0.01953-0.15888-0.04882-0.30884-0.06519-0.22679-0.02475-0.34705 0.0088-0.71484 0.20039-0.3229 0.16815-0.53212 0.2343-0.77586 0.2449-0.27732 0.01201-0.40784 0.0627-0.77126 0.29944-0.59887 0.39012-1.3509 0.75245-1.9015 0.91628-0.25301 0.07528-0.47165 0.12566-0.48582 0.11179-0.01418-0.01391 0.21833-0.20584 0.51675-0.42648 0.57054-0.42184 0.86079-0.74771 0.97917-1.0991 0.08928-0.265 0.05799-0.29492-0.21564-0.20645-0.37852 0.12238-0.76868 0.41978-1.3058 0.99547-0.40132 0.43016-0.61242 0.60144-0.92944 0.75434-0.22562 0.10881-0.42411 0.18424-0.44111 0.16758-0.01699-0.01666 0.06192-0.15037 0.17552-0.29713 0.3589-0.46368 0.42783-0.58704 0.42815-0.76666 2.91e-4 -0.15294-0.01763-0.16954-0.1423-0.13185-0.31391 0.09486-0.53544 0.24942-1.073 0.74848-0.70834 0.65764-0.87294 0.68043-0.39869 0.05538 0.20698-0.27279 0.40956-0.68973 0.40956-0.84294 0-0.11386-0.02505-0.12731-0.17051-0.09152-0.29656 0.07292-0.50394 0.26576-0.99547 0.92652-0.46772 0.62875-0.8001 0.94689-0.8001 0.76583 0-0.04602 0.09983-0.30952 0.22191-0.5855 0.21067-0.47625 0.28772-0.88681 0.16633-0.88681-0.0555 0-0.17662 0.16852-0.85652 1.1917-0.19708 0.29659-0.49333 0.65593-0.65842 0.79863-0.28809 0.24902-0.30112 0.25363-0.32221 0.11576-0.03765-0.24604 0.1065-0.58673 0.4083-0.96538 0.30163-0.37843 0.42298-0.5771 0.49774-0.81452 0.06655-0.21136-0.18416-0.18386-0.39598 0.04347-0.17083 0.18334-0.17098 0.18334-0.14857-0.1306 0.02241-0.31394 0.02255-0.31378-0.17427-0.27143-0.10825 0.02329-0.19684 0.02762-0.19684 0.0098 0-0.01779 0.27822-0.19268 0.6183-0.38866 0.59385-0.34223 1.0194-0.67643 0.94908-0.74535-0.01839-0.01803-0.14319 0.03465-0.27729 0.11702-0.41571 0.25535-1.5723 0.86277-3.2175 1.6898-1.4536 0.73072-1.5659 0.77704-1.4169 0.58425 0.088995-0.11515 0.39515-0.57278 0.68016-1.017 0.285-0.44421 0.61142-0.90555 0.7255-1.0251 0.29526-0.30953 0.41666-0.50357 0.41666-0.66615 0-0.089289-0.02764-0.13181-0.076269-0.13457zm11.327 1.1783c0.05044 8.09e-4 0.01461 0.03854-0.08943 0.1492-0.20949 0.22278-0.52027 0.37379-1.0862 0.52741-0.25575 0.06943-0.47944 0.12621-0.49711 0.12621-0.01767 0 0.12112-0.10106 0.30842-0.22463 0.39909-0.26329 0.89869-0.49156 1.2115-0.55353 0.0763-0.01512 0.12633-0.02499 0.15275-0.02466zm-9.8199 1.0594c0.06872-8.09e-4 0.05 0.07578-0.03719 0.24322-0.1852 0.35563-0.52127 0.70102-0.96371 0.99046-0.4462 0.2919-0.51213 0.3056-0.42815 0.08922 0.16948-0.4367 0.70269-0.99081 1.184-1.2301 0.12104-0.06019 0.20106-0.09233 0.24511-0.09277z" stroke-width=".06277"/>
  </g>
  <g display="none">
   <text x="13.229165" y="25.052795" display="inline" fill="#f9f9f9" font-family="Montserrat" font-size="3.132px" font-weight="500" stroke-width=".0783" text-align="center" text-anchor="middle" style="line-height:1.25" xml:space="preserve"><tspan x="13.229165" y="25.052795" fill="#f9f9f9" font-family="Montserrat" font-weight="500" stroke-width=".0783" text-align="center" text-anchor="middle">JAMES NEFF</tspan></text>
  </g>
  <g transform="rotate(.47819 169.79 345.62)" display="inline">
   <path d="m15.875 10.319v9.2604a1.2775 1.2775 112.5 0 1-0.37418 0.90334l-1.1037 1.1037a1.2775 1.2775 157.5 0 1-0.90334 0.37418h-5.2917a1.2775 1.2775 22.5 0 1-0.90334-0.37418l-1.1037-1.1037a1.2775 1.2775 67.5 0 1-0.37418-0.90334v-2.3812a1.3229 1.3229 135 0 1 1.3229-1.3229h1.8521a0.52917 0.52917 45 0 1 0.52917 0.52917v1.3229a0.52917 0.52917 45 0 0 0.52917 0.52917h1.0583a1.3229 1.3229 135 0 0 1.3229-1.3229v-3.175a0.52917 0.52917 45 0 0-0.52917-0.52917h-5.5563a0.52917 0.52917 45 0 1-0.52917-0.52917v-1.8521a1.3229 1.3229 135 0 1 1.3229-1.3229h7.9375a0.79375 0.79375 45 0 1 0.79375 0.79375z" display="inline" fill="#f9f9f9" stroke-width=".33936"/>
   <path transform="matrix(.20368 0 0 .11759 22.024 22.789)" d="m-56.352 17.658-10.329-17.89a1.5122 1.5122 120 0 1 1.3096-2.2683l20.869-4e-7a1.4389 1.4389 60 0 1 1.2461 2.1583l-10.392 18a1.5611 1.5611 180 0 1-2.704 0z" display="inline" fill="#e69522"/>
  </g>
  <path d="m15.346 2.6458h3.175v3.175a1.5875 1.5875 0 0 1-1.5875 1.5875h-3.175v-3.175a1.5875 1.5875 0 0 1 1.5875-1.5875z" display="inline" fill="#f9f9f9" stroke-width=".15875"/>
 </g>
 <g>
  <g display="none">
   <g fill="#e69522">
    <path d="m15.346 7.4083 2.6458 4.7625v-3.4396a1.3229 1.3229 135 0 1 1.3229-1.3229h1e-6v6.6146h-1.5875l-2.3812-3.9688-1e-6 3.9688h-1.3229v-6.6146z" display="inline" stroke-width=".21321"/>
    <path d="m15.346 7.4083 2.6458 4.7625v-3.4396a1.3229 1.3229 135 0 1 1.3229-1.3229v6.6146h-1.5875l-2.3812-3.9688v3.175a1.3687 1.3687 133.11 0 1-1.3229 1.413v-7.2338z" display="inline" stroke-width=".21321"/>
    <path d="m14.288 6.35 3.608 6.4943v-6.4943h1.804v9.0199h-2.1648l-3.2472-5.4119-0.24511 4.2503a2.9642 2.9642 127.43 0 1-2.0219 2.6415l-0.25851 0.08617s0.39019-0.5149 0.59672-1.2708c0.13139-0.4809 0.12487-1.2997 0.12487-1.8001l-1e-6 -7.4743a0.040644 0.040644 135 0 1 0.040644-0.040644z" display="inline" stroke-width=".29074"/>
    <path d="m15.346 7.4083 2.6458 4.7625v-3.4396a1.3229 1.3229 135 0 1 1.3229-1.3229v6.6146h-1.5875l-2.3812-3.9688v5.0271a1.3229 1.3229 135 0 1-1.3229 1.3229l-1e-6 -8.9958z" display="inline" stroke-width=".21321"/>
    <path d="m15.346 7.4083 2.6458 4.7625v-4.7625h1.3229v6.6146h-1.5875l-2.3812-3.9688v3.9688h-1.3229v-6.6146z" display="inline" stroke-width=".21321"/>
   </g>
   <g display="inline">
    <path d="m11.684 3.9688h1.7639v1.7639a0.88194 0.88194 0 0 1-0.88194 0.88194h-1.7639v-1.7639a0.88194 0.88194 0 0 1 0.88194-0.88194z" display="inline" fill="#f9f9f9" stroke-width=".088195"/>
   </g>
   <g display="none">
    <circle cx="12.123" cy="5.29" r="1.3209" fill="#f9f9f9" stroke-width="1.8042"/>
   </g>
   <g fill="#f9f9f9">
    <path d="m13.229 7.3183v4.9011c0 0.29225-0.01078 0.76622-0.04768 1.0561-0.3797 2.9826-2.4991 4.1847-4.9794 4.7162v-1.5875c0-0.29225 0.21476-0.62936 0.47524-0.76186 2.7774-1.4129 2.1944-2.1874 2.1239-5.1737-0.0069-0.292-0.24325-0.52882-0.5355-0.52882h-1.3433v-1.2986a1.146 1.146 125.29 0 1 0.93625-1.3229z" display="inline" stroke-width=".24017"/>
    <path d="m9.0199 6.35h2.4053v2.4053a1.2027 1.2027 0 0 1-1.2027 1.2027h-2.4053v-2.4053a1.2027 1.2027 0 0 1 1.2027-1.2027z" display="inline" stroke-width=".12026"/>
    <path d="m9.7415 15.009v-0.36079h-1.804v-2.4053c0-0.66421 0.53844-1.2027 1.2027-1.2027h2.4053v3.608c0 1.804-1.804 3.608-3.608 3.608 1.4432-1.0824 1.804-2.1648 1.804-3.2472z" display="inline" stroke-width=".12026"/>
   </g>
  </g>
  <g>
   <g transform="matrix(.89069 0 0 .88889 -5.9044 -4.5861)">
    <path d="m14.288 6.35 3.608 6.4943v-6.4943h1.804v9.0199h-2.1648l-3.2472-5.4119-0.24511 4.2503a2.9642 2.9642 127.43 0 1-2.0219 2.6415l-0.25851 0.08617s0.39019-0.5149 0.59672-1.2708c0.13139-0.4809 0.12487-1.2997 0.12487-1.8001l-1e-6 -7.4743a0.040644 0.040644 135 0 1 0.040644-0.040644z" fill="#e69522" stroke-width=".29074"/>
    <path d="m9.0199 6.35h2.4053v2.4053a1.2027 1.2027 0 0 1-1.2027 1.2027h-2.4053v-2.4053a1.2027 1.2027 0 0 1 1.2027-1.2027z" fill="#f9f9f9" stroke-width=".12026"/>
    <path d="m9.7415 15.009v-0.36079h-1.804v-2.4053c0-0.66421 0.53844-1.2027 1.2027-1.2027h2.4053v3.608c0 1.804-1.804 3.608-3.608 3.608 1.4432-1.0824 1.804-2.1648 1.804-3.2472z" fill="#f9f9f9" stroke-width=".12026"/>
   </g>
  </g>
  <g display="none">
   <g transform="translate(9.2604 1.9945)" display="inline">
    <g transform="translate(-5.3642 -7.0707)" display="inline">
     <text x="0.089424983" y="27.071667" fill="#f9f9f9" font-family="Montserrat" font-size="2.8653px" font-weight="500" stroke-width=".071633" style="line-height:1.25" xml:space="preserve"><tspan x="0.089424983" y="27.071667" fill="#f9f9f9" font-family="Montserrat" font-weight="500" stroke-width=".071633">JAMES NEFF</tspan></text>
    </g>
   </g>
  </g>
 </g>
 <g display="none">
  <path d="m-26.458 1.3229h5.2917v11.906c0 1.4613-1.1846 2.6458-2.6458 2.6458h-5.2917l-1e-6 -3.9688h3.9688v-6.6146l-3.9688 0.0083v-1.3312c0-1.4613 1.1846-2.6458 2.6458-2.6458z" display="inline" fill="#f9f9f9" stroke-width=".26458"/>
  <text transform="scale(.26458)" fill="#000000" font-family="sans-serif" font-size="40px" style="line-height:1.25;shape-inside:url(#rect9745);white-space:pre" xml:space="preserve"/>
  <path d="m-14.874 15.875c-0.98289 0-1.7922 0.80928-1.7922 1.7922v2.9703h2.9682c0.9829 0 1.7922-0.81145 1.7922-1.7943v-2.9682zm0 1.2346h1.7336v1.7336c0 0.31574-0.24188 0.55978-0.55762 0.55978h-1.7336v-1.7358c0-0.31574 0.24188-0.55761 0.55761-0.55761z" color="#000000" display="inline" fill="#f9f9f9" stroke-width="1.1109" style="-inkscape-stroke:none"/>
  <g>
   <path d="m-33.073 29.104 2.7192 0.01513v7.9375l-1.8521 1.8521h-4.2333l-1.8521-1.8521v-2.1167h1.8521v1.8521l0.26458 0.26458h3.7042l0.26458-0.26458v-5.8208h-6.0854v-1.8521h1.8521z" display="inline" fill="#f9f9f9" stroke-width=".26458"/>
   <path transform="matrix(.13239 0 0 .082315 -27.041 39.644)" d="m-55 20-12.99-22.5 25.981-6e-7 -6.4952 11.25z" display="inline" fill="#ff7f2a"/>
   <path d="m-36.252 23.278 7.2213 7.1638-0.71615 0.81382-7.2213-7.1638z" display="inline" fill="#202731" stroke-width="1.1641"/>
   <text x="10.583333" y="-13.229166" fill="#000000" font-family="'Lucida Console'" font-size="10.583px" stroke-width=".26458" style="line-height:1.25" xml:space="preserve"><tspan x="10.583333" y="-13.229166" font-family="'Lucida Console'" stroke-width=".26458">;</tspan></text>
  </g>
  <path d="m90.89 43.994c-0.46889-0.18892-0.73074-0.675-0.73074-1.3565 0-0.69087 0.88134-2.8874 1.4804-3.6895 0.25681-0.34386 0.54313-0.72681 0.63626-0.851 0.21901-0.29203 2.4342-2.5204 3.0796-3.0979 0.27338-0.24462 0.73465-0.56764 1.025-0.71781 0.2904-0.15017 0.57106-0.40723 0.62369-0.57123 0.10283-0.32048 1.0336-1.0008 1.2814-0.93663 0.08265 0.02139 0.19403-0.09291 0.24752-0.254 0.08256-0.24865 2.1264-1.9016 2.3512-1.9016 0.042 0 0.32105-0.2286 0.62015-0.508s0.66911-0.5111 0.82224-0.51488c0.15314-0.0038 0.54225-0.23238 0.8647-0.508 0.32245-0.27562 0.67624-0.50112 0.78621-0.50112s0.24453-0.11617 0.29902-0.25816c0.0717-0.18698 0.22848-0.2271 0.56845-0.14551 0.25816 0.06196 0.41448 0.05338 0.34738-0.01906-0.21944-0.23691 0.54312-1.1013 0.97158-1.1013 0.26179 0 0.56172-0.20785 0.85523-0.59267 0.24863-0.32597 0.55731-0.59267 0.68596-0.59267 0.13051 0 0.2339-0.17047 0.2339-0.38566 0-0.21211 0.1316-0.57354 0.29245-0.80318 0.16084-0.22964 0.30466-0.49425 0.31959-0.58801 0.0602-0.37784 0.88665-2.0822 1.0624-2.1908 0.10353-0.06399 0.18823-0.26424 0.18823-0.44501s0.0762-0.32867 0.16934-0.32867c0.0931 0 0.16933-0.12304 0.16933-0.27342 0-0.43812 0.8888-1.948 1.0992-1.8672 0.12458 0.0478 0.16658-0.09746 0.11998-0.41494-0.049-0.33359 0.0115-0.5204 0.19055-0.58912 0.14423-0.05535 0.2263-0.19429 0.18238-0.30875-0.11295-0.29432 0.77214-1.8198 0.98096-1.6908 0.10505 0.06492 0.1332-0.01759 0.0719-0.21089-0.0553-0.17465 4e-3 -0.50804 0.1317-0.74087 0.12778-0.23283 0.64705-1.1853 1.1539-2.1167 0.50689-0.93133 1.0062-1.8457 1.1095-2.032 0.10336-0.18627 0.36021-0.70383 0.57079-1.1501 0.21057-0.44631 0.4724-0.88577 0.58182-0.97659 0.28386-0.23558 0.74989-0.010803 0.74989 0.36169 0 0.29234-0.14186 0.58598-0.9959 2.0614-0.1752 0.30268-0.68255 1.198-1.1274 1.9897-0.44488 0.79163-0.95441 1.6489-1.1323 1.905-0.17789 0.25612-0.28402 0.46567-0.23585 0.46567 0.0701 0-0.88309 1.9567-1.5673 3.2173-0.0758 0.1397-0.50325 1.016-0.94983 1.9473-0.44659 0.93133-0.9728 1.8709-1.1694 2.088s-0.34746 0.44565-0.33534 0.508c0.0121 0.06235-0.045 0.28977-0.127 0.50538-0.082 0.21561-0.14904 0.43821-0.14904 0.49467 0 0.05645-0.12355 0.23915-0.27454 0.406-0.15898 0.17567-0.22777 0.42524-0.16343 0.59291 0.0996 0.25951 0.13785 0.25138 0.36881-0.07836 0.14173-0.20235 0.3574-0.36791 0.47926-0.36791s0.4153-0.1524 0.6521-0.33867c0.2368-0.18627 0.5496-0.33867 0.6951-0.33867 0.14551 0 0.43357-0.2286 0.64014-0.508s0.47383-0.508 0.59392-0.508c0.20063 0 0.99376-0.39946 2.6441-1.3317 0.782-0.44174 0.96852-0.45216 0.96852-0.05413 0 0.34074-1.1382 1.053-1.4817 0.92717-0.11642-0.04265-0.21167-0.0025-0.21167 0.08917 0 0.20431-1.1116 0.8775-1.449 0.8775-0.13438 0-0.24432 0.1143-0.24432 0.254 0 0.15708-0.15927 0.254-0.41738 0.254-0.24978 0-0.49327 0.14181-0.60638 0.35317-0.10396 0.19424-0.23315 0.30903-0.28711 0.25508-0.054-0.05395-0.20958 0.06109-0.34586 0.25564-0.18286 0.26108-0.37865 0.33453-0.74741 0.28041-0.41617-0.06108-0.48626-0.02214-0.41952 0.23307 0.0586 0.22398-0.0633 0.35914-0.45311 0.50246-0.29328 0.10783-0.83803 0.5661-1.2106 1.0184-0.37254 0.45227-0.82002 0.8234-0.9944 0.82472-0.27275 0.0021-0.28534-0.03583-0.0901-0.27113 0.1964-0.23665 0.18396-0.26519-0.0922-0.21167-0.45777 0.08871-0.53214 0.49071-0.11115 0.6008 0.48817 0.12766 0.44748 0.5213-0.15149 1.4658-0.2794 0.44057-0.508 0.86526-0.508 0.94375 0 0.0785-0.11804 0.24068-0.26231 0.36042-0.14428 0.11973-0.45632 0.6139-0.69343 1.0982-0.23712 0.48425-0.59533 1.0635-0.79602 1.2873-0.2007 0.22377-0.65589 0.83795-1.0115 1.3649-1.3726 2.0335-4.119 5.0146-6.1435 6.6682-0.84742 0.69221-1.5957 1.2586-1.6628 1.2586-0.06714 0-0.45432 0.2286-0.86042 0.508s-0.80376 0.508-0.88371 0.508c-0.07994 0-0.44428 0.1524-0.80963 0.33867-0.69906 0.3564-1.4451 0.4172-2.0633 0.16815zm1.8405-1.0382c0.15686-0.08025 0.42957-0.14591 0.60601-0.14591s0.86693-0.42434 1.5344-0.94297c0.91325-0.7096 1.3081-0.91952 1.5953-0.84823 0.20994 0.05211 0.29075 0.05242 0.17956 6.77e-4 -0.21322-0.09917-0.11277-0.58014 0.12116-0.58014 0.07522 0 0.71386-0.5715 1.4192-1.27s1.3595-1.27 1.4538-1.27c0.09425 0 0.15231-0.07106 0.12902-0.1579-0.04006-0.14941 1.5786-2.2316 2.9633-3.8119 0.34925-0.39859 0.635-0.80288 0.635-0.89843 0-0.09555 0.25437-0.54423 0.56526-0.99706 0.3109-0.45283 0.59665-0.89953 0.635-0.99267 0.20806-0.50521 0.95656-1.451 1.2152-1.5355 0.16433-0.05368 0.25508-0.1683 0.20167-0.25473-0.16663-0.2696 0.11341-0.56362 0.28784-0.30222 0.0984 0.14746 0.11332 0.04781 0.0416-0.27826-0.17112-0.77845-0.35785-0.86966-0.75271-0.36768-0.1957 0.24879-0.46458 0.45234-0.59752 0.45234s-0.24171 0.07119-0.24171 0.15821c0 0.13773-2.6182 2.0431-2.8075 2.0431-0.0391 0-0.0774-0.17145-0.085-0.381-0.0121-0.33395-0.042-0.31679-0.24207 0.13892-0.12555 0.28596-0.51938 0.76607-0.87519 1.0669-0.75295 0.63662-3.2713 2.7183-4.0865 3.378-0.30851 0.24964-0.66988 0.55399-0.80303 0.67634-0.13316 0.12235-0.31802 0.17555-0.4108 0.1182-0.09278-0.05734-0.13029-0.0042-0.08335 0.11815 0.04767 0.12422-0.43909 0.74282-1.1026 1.4013-0.65337 0.64837-1.188 1.2413-1.188 1.3177 0 0.07634-0.30485 0.54258-0.67744 1.0361-0.39827 0.5275-0.73802 1.2049-0.82445 1.6437-0.08085 0.41056-0.1721 0.82267-0.20278 0.91581-0.03067 0.09313 0.0026 0.34093 0.07397 0.55067 0.10596 0.31147 0.21294 0.36147 0.58388 0.27291 0.24978-0.05963 0.58249-0.17409 0.73935-0.25434zm5.5516-9.8826c0-0.09313-0.07387-0.05503-0.16415 0.08467-0.09028 0.1397-0.16415 0.3302-0.16415 0.42333 0 0.09313 0.07387 0.05503 0.16415-0.08467 0.09028-0.1397 0.16415-0.3302 0.16415-0.42333zm6.1012-0.68733c0-0.1452-0.0762-0.2169-0.16934-0.15934-0.0931 0.05756-0.16933 0.17636-0.16933 0.26399 0 0.08764 0.0762 0.15934 0.16933 0.15934 0.0931 0 0.16934-0.1188 0.16934-0.26399zm-1.778-2.4453c0.0576-0.09313 0.0285-0.16933-0.0647-0.16933-0.0931 0-0.21643 0.0762-0.27399 0.16933-0.0576 0.09313-0.0285 0.16933 0.0647 0.16933 0.0931 0 0.21643-0.0762 0.27399-0.16933zm7.1967-7.4507c0-0.09313-0.0336-0.16933-0.0747-0.16933s-0.12176 0.0762-0.17932 0.16933c-0.0576 0.09313-0.024 0.16933 0.0747 0.16933 0.0986 0 0.17933-0.0762 0.17932-0.16933zm48.641 9.0311c-0.55065-0.22026 0.0297-3.5119 1.5774-8.9464 0.13261-0.46567 0.42967-1.5138 0.66012-2.3292 0.78995-2.7951 1.6687-5.2442 2.0418-5.6907 0.20532-0.24571 0.42838-0.62263 0.49568-0.8376 0.0942-0.30085 0.22626-0.37883 0.57351-0.33867 0.65236 0.07545 0.64524 0.51999-0.0538 3.3568-0.79471 3.2251-1.0853 6.8569-0.79504 9.9367 0.10904 1.1571 0.28983 2.2706 0.40174 2.4746 0.19018 0.34658 0.21197 0.32261 0.33343-0.3669 0.0715-0.40575 0.1988-0.82485 0.28295-0.93133 0.0841-0.10648 0.21328-0.49841 0.28694-0.87094 0.0737-0.37253 0.15249-0.75353 0.17516-0.84667 0.14471-0.5944 1.6818-8.0821 1.9353-9.4277 0.16978-0.90108 0.38577-1.8917 0.47998-2.2013 0.0942-0.30965 0.33717-1.3585 0.53993-2.3308 0.4255-2.0404 0.61404-2.6076 0.82368-2.478 0.0824 0.050913 0.13052-0.15224 0.10698-0.45144-0.0415-0.52793 0.62451-2.5896 0.9415-2.9143 0.0864-0.088477 0.15704-0.31071 0.15704-0.49386 0-0.44776 1.6766-4.0411 2.8152-6.0339 0.98715-1.7276 1.8223-2.963 2.6153-3.8687 0.27288-0.31166 0.49614-0.61835 0.49614-0.68154 0-0.12922 1.4726-1.5458 1.607-1.5458 0.1806 0 0.0761 0.49408-0.15294 0.72313-0.13163 0.13163-0.38032 0.49902-0.55265 0.81643-0.17234 0.31741-0.67424 1.1319-1.1154 1.8101-0.44111 0.67812-0.80202 1.2768-0.80202 1.3303 0 0.053543-0.24765 0.4094-0.55033 0.79079-0.30268 0.38139-0.64291 0.84955-0.75605 1.0404-0.44456 0.74976-2.2437 4.4623-2.5889 5.3423-0.20094 0.51223-0.52119 1.2361-0.71167 1.6087-0.19048 0.37253-0.41295 0.80965-0.49438 0.97137-0.0814 0.16172-0.14804 0.45015-0.14804 0.64096 0 0.19081-0.12268 0.53415-0.27262 0.76299-0.14994 0.22884-0.23095 0.52465-0.18002 0.65736 0.0509 0.13271-0.0169 0.28331-0.15072 0.33466-0.15665 0.06011-0.24331 0.34006-0.24331 0.78601 0 0.38095-0.0654 0.65224-0.14526 0.60286-0.0799-0.04938-0.18869 0.48451-0.24178 1.1864-0.0531 0.7019-0.20355 1.4427-0.33438 1.6461-0.13082 0.20346-0.37878 1.0938-0.55102 1.9786-0.17224 0.88477-0.37868 1.6965-0.45876 1.8039-0.0846 0.11347-0.074 0.21982 0.0254 0.254 0.10588 0.03641 0.0402 0.54236-0.17258 1.3288-0.18896 0.6985-0.36376 1.5891-0.38844 1.9791-0.0247 0.39002-0.13151 0.81352-0.2374 0.94112-0.1059 0.12759-0.23567 0.76099-0.28839 1.4075-0.0877 1.0753-0.72718 4.533-1.1142 6.0245-0.15943 0.61435-0.6004 0.90294-1.0917 0.71443-0.56552-0.21701-1.4292-3.8582-1.4495-6.1107-7e-3 -0.81654-0.0518-1.3894-0.0988-1.273-0.047 0.11642-0.21241 0.21283-0.36763 0.21426-0.20793 0.0019-0.22567 0.03849-0.0674 0.13896 0.16571 0.10518 0.0376 0.69524-0.56026 2.5797-0.87362 2.7539-1.6631 4.7849-1.8798 4.8361-0.08 0.0189-0.24066-0.0037-0.35708-0.05031zm-39.326-1.7316c-0.53473-0.14882-0.88157-0.79799-0.78485-1.469 0.0681-0.47252 0.69846-1.906 1.4097-3.2058 0.15288-0.2794 0.64957-0.99342 1.1037-1.5867 0.45418-0.59328 0.79013-1.1143 0.74657-1.1579-0.0436-0.04356-0.59442 0.31568-1.2241 0.79832-0.62971 0.48264-1.3234 0.94541-1.5417 1.0284-0.2182 0.08296-0.44103 0.26628-0.49518 0.40738-0.0541 0.1411-0.1884 0.25654-0.29836 0.25654-0.10995 0-0.57518 0.381-1.0338 0.84667-0.45866 0.46567-0.89415 0.84667-0.96774 0.84667-0.0736 0-0.41279 0.3088-0.75376 0.68622-0.90786 1.0049-1.2326 1.1401-1.6122 0.67141l-0.30835-0.38079 2.9533-2.9438c1.6243-1.6191 3.0343-2.9438 3.1333-2.9438 0.099 0 0.18008-0.08851 0.18008-0.1967 0-0.29939 1.1113-1.2509 2.694-2.3067 1.3835-0.9229 1.6948-1.4195 0.45252-0.72169-0.33925 0.19054-0.73119 0.34644-0.87098 0.34644s-0.29925 0.1175-0.35436 0.26111c-0.0551 0.14361-0.235 0.23886-0.39976 0.21167-0.16476-0.02719-0.46018 0.09571-0.65649 0.27313-0.19631 0.17742-0.35692 0.27418-0.35692 0.21502 0-0.12026-1.4672 0.65825-1.8627 0.98832-0.1397 0.11661-0.4445 0.26789-0.67733 0.33618-0.23284 0.06829-0.5928 0.27922-0.79992 0.46873-0.35433 0.32421-0.38343 0.32671-0.49261 0.04219-0.16362-0.42638 0.14638-0.83952 0.67748-0.90287 0.2483-0.02962 0.40757-0.12487 0.35393-0.21167-0.0536-0.08679 0.0549-0.15781 0.24113-0.15781 0.18627 0 0.38278-0.07137 0.43669-0.15861 0.12871-0.20825 1.0961-0.68806 1.3873-0.68806 0.1254 0 0.37287-0.14488 0.54994-0.32195s0.50092-0.37608 0.71966-0.44223c0.49708-0.15033 2.3921-0.95981 5.139-2.1952 1.6982-0.76372 1.8852-0.81107 2.3089-0.58432 0.36578 0.19576 0.3718 0.22248 0.0891 0.39518-0.16679 0.10187-0.67179 0.45193-1.1222 0.77789-0.45044 0.32597-1.6076 1.1013-2.5714 1.7229-1.7555 1.1323-3.0668 2.1717-2.7396 2.1717 0.0959 0 0.50204-0.24765 0.90247-0.55033 1.861-1.4068 2.0616-1.4919 2.5942-1.1007 0.26127 0.19191 0.21718 0.29071-0.4723 1.0583-1.5505 1.7262-4.1534 5.0347-4.1536 5.2796-1.2e-4 0.10976-0.0955 0.30026-0.21187 0.42333-0.21818 0.23064-0.80434 1.8069-0.80434 2.163 0 0.32908 0.79458-0.33048 2.978-2.4719 2.4955-2.4475 5.3977-5.0375 6.5047-5.8048 0.32597-0.22594 0.6536-0.5117 0.72808-0.635 0.20661-0.34207 0.75948-0.26709 0.88223 0.11966 0.0696 0.21929-0.0427 0.60267-0.30989 1.0583-0.76739 1.3085-1.6591 2.5593-1.9897 2.7908-0.1797 0.12587-0.32673 0.30582-0.32673 0.39988 0 0.09407-0.17926 0.4136-0.39835 0.71006-0.47853 0.64753-0.66323 0.96237-0.56456 0.96237 0.14905 0 2.2379-1.7327 2.3703-1.9662 0.0756-0.13324 0.20892-0.19806 0.29633-0.14404 0.0874 0.05402 0.15893 0.03353 0.15893-0.04555 0-0.21462 1.1803-1.433 1.9039-1.9654 0.7415-0.54554 1.9497-1.1191 2.3685-1.1244 0.75311-0.0095 0.44561 1.221-0.74719 2.9901-0.26249 0.38931-0.47725 0.79112-0.47725 0.8929 0 0.19495 0.67708-0.17192 1.27-0.68812 0.18626-0.16217 0.54821-0.34686 0.80433-0.41043 0.25612-0.06357 0.46567-0.18587 0.46567-0.27178 0-0.23961 3.3815-1.8391 3.8881-1.8391 0.4857 0 0.85321 0.27339 0.85321 0.63471 0 0.12557-0.15188 0.54266-0.3375 0.92686-0.39049 0.80822-0.33903 0.94024 0.26008 0.66727 0.52601-0.23966 0.92409-0.25381 0.92409-0.03285 0 0.26957-3.2642 2.7168-3.6175 2.7121-0.1059-0.0014-0.29594-0.06811-0.42232-0.14819-0.32998-0.20909-0.125-0.70934 0.79411-1.938 0.90559-1.2106 1.2137-1.7181 1.2137-1.9992 0-0.12805-0.10457-0.10684-0.29634 0.0601-0.16298 0.14188-0.94403 0.5799-1.7357 0.97337-0.79164 0.39347-1.822 1.0024-2.2897 1.3533-0.46771 0.35084-1.0133 0.6896-1.2125 0.75282-0.19917 0.06321-0.48659 0.30489-0.63871 0.53706-0.15213 0.23217-0.34423 0.38032-0.4269 0.32923-0.0827-0.05109-0.26562 0.07174-0.40657 0.27297-0.32916 0.46995-1.1206 0.99192-1.5062 0.99335-0.34485 0.0014-0.78505-0.8065-0.53659-0.98468 0.0881-0.06318 0.38303-0.44328 0.65541-0.84466 0.27238-0.40138 0.63412-0.80411 0.80386-0.89496 0.16974-0.09084 0.30862-0.3111 0.30862-0.48946 0-0.17836 0.10598-0.38523 0.23551-0.45971 0.12953-0.07448 0.47185-0.53784 0.76072-1.0297 0.61723-1.051 0.48324-1.0109-1.2458 0.37267-0.64946 0.51971-1.24 0.94493-1.3123 0.94493-0.0723 0-0.13148 0.10153-0.13148 0.22563s-0.2833 0.40985-0.62956 0.635-0.80804 0.67607-1.0262 1.002c-0.21813 0.32597-0.47895 0.62164-0.57959 0.65705-0.21678 0.07628-0.71867 0.4676-1.2682 0.98879-0.31979 0.30331-0.47746 0.34497-0.81705 0.21586-0.55102-0.2095-0.57801-1.0247-0.0502-1.5164 0.20383-0.1899 0.31658-0.34526 0.25056-0.34526-0.22491 0 0.52959-1.2749 1.4906-2.5186 0.52726-0.68242 0.91782-1.2816 0.86789-1.3315-0.0499-0.04992-0.42451 0.26254-0.83241 0.69437-0.4079 0.43183-0.82928 0.78514-0.93641 0.78514s-0.19478 0.07973-0.19478 0.17717c0 0.22336-6.5116 6.7715-6.711 6.7486-0.0808-0.0093-0.3369-0.06972-0.56899-0.13432zm9.82-8.8235c0-0.09313-0.0762-0.16933-0.16933-0.16933-0.0931 0-0.16934 0.0762-0.16934 0.16933 0 0.09313 0.0762 0.16933 0.16934 0.16933 0.0931 0 0.16933-0.0762 0.16933-0.16933zm-4.1387-3.2966c0.18079-0.13674 0.23968-0.25104 0.13088-0.254-0.32169-0.0088-0.73351 0.18853-0.73351 0.3514 0 0.22192 0.22949 0.18483 0.60263-0.0974zm0.92137-0.42872c0-0.09313-0.0807-0.16933-0.17933-0.16933-0.0986 0-0.13223 0.0762-0.0747 0.16933 0.0576 0.09313 0.13826 0.16933 0.17933 0.16933 0.0411 0 0.0747-0.0762 0.0747-0.16933zm41.824 10.158c-0.155-0.28962-0.11829-0.36453 0.24657-0.50325 0.57878-0.22005 0.93962-0.05173 0.93962 0.4383 0 0.33628-0.0854 0.40522-0.50204 0.40522-0.32952 0-0.56462-0.11693-0.68415-0.34027zm-25.811-2.5936c-0.21493-0.15716-0.27196-0.33534-0.19-0.59358 0.26814-0.84481 1.5717-1.9518 2.0834-1.7692 0.24761 0.08837 0.28822 0.55532 0.0483 0.55532-0.18294 0-0.58241 0.66532-0.4681 0.77963 0.17085 0.17086 3.3154-1.2006 3.962-1.7279 0.80815-0.65915 0.85575-0.67079 1.2571-0.30762 0.28041 0.25377 0.26895 0.31775-0.2148 1.1992l-0.51103 0.93115 0.35514 0.37802c0.44609 0.47485 0.44728 0.6102 5e-3 0.6102-0.41976 0-0.96062-0.26382-1.4468-0.70569-0.28235-0.25663-0.44211-0.28964-0.762-0.15748-0.70362 0.29068-3.2415 1.0325-3.5324 1.0325-0.15345 0-0.4172-0.10106-0.58611-0.22457z" stroke-width=".16933"/>
 </g>
</svg>
